<svg id="Layer_1" data-name="Layer 1" xmlns="http://www.w3.org/2000/svg" viewBox="0 0 40 40"><defs><style>.cls-1{fill:none;stroke:#fff;stroke-miterlimit:10;stroke-width:0.1px;opacity:0.01;}.cls-2{fill:red;fill-rule:evenodd;}</style></defs><title>icon</title><rect class="cls-1" width="40" height="40"/><path class="cls-2" d="M6.67,27.94c-.46.55-.93,1.14-1.44,1.7a3.51,3.51,0,0,1-.71.56c-.62.36-.93.25-1.11-.43a7.08,7.08,0,0,1-.18-3.42,15.51,15.51,0,0,1,3.41-7,.41.41,0,0,0,.07-.53c-.16-.43-.31-.86-.44-1.3a2.08,2.08,0,0,1,.23-1.5,3.58,3.58,0,0,0,.32-.88,2,2,0,0,1,1.1-1.5.59.59,0,0,0,.23-.43c.08-.76.09-1.52.18-2.28a10.2,10.2,0,0,1,2.12-4.71,11.28,11.28,0,0,1,9.86-4.84A11.44,11.44,0,0,1,30.43,7.73a12.91,12.91,0,0,1,1.5,4.82,1.07,1.07,0,0,0,.38.73,5.25,5.25,0,0,1,1.68,3,4.51,4.51,0,0,1-.38,3,.41.41,0,0,0,.08.53,15.29,15.29,0,0,1,3.15,7.09,6.61,6.61,0,0,1-.29,3c-.17.57-.44.68-1,.4a6.23,6.23,0,0,1-2-2c-.1-.12-.18-.25-.27-.37-2.45,5.69-6.79,8.78-12.91,8.94C13.93,37,9.31,33.87,6.67,27.94Zm2.78-5.81a1.29,1.29,0,0,0-.09.16,6.26,6.26,0,0,0-.21.61,11,11,0,0,0,2.46,9.76,9.68,9.68,0,0,0,5.37,3,13.29,13.29,0,0,0,3.18.47A11.61,11.61,0,0,0,23,35.68a10,10,0,0,0,5.16-2.8,11.09,11.09,0,0,0,2.94-8.14,6.87,6.87,0,0,0-.49-2.46A16.45,16.45,0,0,1,24.09,25,22,22,0,0,1,17,24.86c-.05,1.28-.09,2.52-.15,3.75a1.64,1.64,0,0,1-1.42,1.65,5.9,5.9,0,0,1-3.3-.36,2.33,2.33,0,0,1-1.72-2.5c.06-1.28.19-2.56.34-3.83.06-.49,0-.81-.5-1A4.45,4.45,0,0,1,9.45,22.13Zm22.87-7.45-.32.66A9.78,9.78,0,0,1,26.25,20a20,20,0,0,1-10.44.58c-3.49-.7-6.31-2.38-7.86-5.89-.11.31-.19.55-.26.78a3.13,3.13,0,0,1-.26.85,1.5,1.5,0,0,0-.21,1.43A7.06,7.06,0,0,0,11,22a23.39,23.39,0,0,0,8.44,2.32A15.27,15.27,0,0,0,27.55,23a14.43,14.43,0,0,0,4.91-3.6A3.93,3.93,0,0,0,32.32,14.68ZM14.36,17l.06-.1C18.5,20,22.58,20,26.71,17l-.6,1.11a3.93,3.93,0,0,0,2.17-.9c.6-.51.58-1-.12-1.29a19.16,19.16,0,0,0-3.25-1.37,17.13,17.13,0,0,0-7.27-.34A14.49,14.49,0,0,0,12.85,16c-.63.34-.66.74-.12,1.22a3.8,3.8,0,0,0,2,.92,1.06,1.06,0,0,0,.24,0Zm1.7,7.7-4.5-1.41c-.11,1.4-.24,2.8-.32,4.2a1.42,1.42,0,0,0,1,1.45,5.83,5.83,0,0,0,2.47.49c.93,0,1.2-.29,1.25-1.21C16,27.08,16,25.89,16.06,24.74Zm9.6-14.56a4.31,4.31,0,0,0-.79-2.57,1.76,1.76,0,0,0-3,0,4.63,4.63,0,0,0,0,5.18,1.78,1.78,0,0,0,3.06-.07A4.48,4.48,0,0,0,25.66,10.18Zm-6.45,0a4,4,0,0,0-1-2.78,1.71,1.71,0,0,0-2.73.11,4.55,4.55,0,0,0,0,5.37,1.73,1.73,0,0,0,2.82,0A4.16,4.16,0,0,0,19.21,10.15Z"/><path class="cls-2" d="M8.64,32.21c2.69,2.78,5.76,4.67,9.65,5v.13c-.34.18-.67.41-1,.56A11.15,11.15,0,0,1,9.63,38a8.62,8.62,0,0,1-1.74-.75c-1.36-.77-1.58-1.71-.75-3-.23-.37-.17-.74.27-1.11S8.22,32.51,8.64,32.21Z"/><path class="cls-2" d="M21.9,37.17a14.67,14.67,0,0,0,9.57-4.89c1.21.42,1.94,1.31,1.55,1.92.1.16.21.31.29.47a1.61,1.61,0,0,1-.3,2,5.88,5.88,0,0,1-2.66,1.36,11,11,0,0,1-7.43-.19,10.57,10.57,0,0,1-1.05-.56Z"/><path class="cls-2" d="M24,10.63h-.77c-.11-.31-.23-.61-.34-.92h-.2l-.38.92h-.62a2.1,2.1,0,0,1,.4-1.42.79.79,0,0,1,1.37,0A8.15,8.15,0,0,1,24,10.63Z"/><path class="cls-2" d="M18.27,9.11a.69.69,0,0,0-1.14,0,1.85,1.85,0,0,0,0,2.17.69.69,0,0,0,1.14,0A2.32,2.32,0,0,0,18.27,9.11ZM18,10.31c-.14,0-.25-.19-.25-.42s.11-.42.25-.42.25.19.25.42S18.1,10.31,18,10.31Z"/></svg>