<svg xmlns="http://www.w3.org/2000/svg" viewBox="0 0 40 40"><defs><style>.cls-1{fill:none;stroke:#fff;stroke-miterlimit:10;stroke-width:0.1px;opacity:0.01;}.cls-2{fill:red;}</style></defs><title>icon</title><g id="Layer_1" data-name="Layer 1"><rect class="cls-1" width="40" height="40"/></g><g id="Layer_7" data-name="Layer 7"><path class="cls-2" d="M3.63,13.57V12.16a1.89,1.89,0,0,0,.05-.23,9.33,9.33,0,0,1,.61-2.5,9.18,9.18,0,0,1,3-3.91,8.75,8.75,0,0,1,3.26-1.58c.54-.13,1.09-.21,1.64-.31h1.41l.22.06a9.25,9.25,0,0,1,3.69,1.22.77.77,0,0,0,.4.06c.76,0,1.52-.16,2.29-.15a15.06,15.06,0,0,1,6.29,1.43,15.32,15.32,0,0,1,3.25,2.07,15.68,15.68,0,0,1,3.09,3.51A15.07,15.07,0,0,1,35,22.12a.87.87,0,0,0,.1.47,8.71,8.71,0,0,1,1,2.46c.11.46.18.92.27,1.38v1.36a1.16,1.16,0,0,0,0,.18,9.18,9.18,0,0,1-1.89,4.82A8.93,8.93,0,0,1,29.56,36c-.58.16-1.18.22-1.77.33H26.43l-.22-.06a9.09,9.09,0,0,1-3.51-1.12A1,1,0,0,0,22,35a14.81,14.81,0,0,1-5.35-.24,15,15,0,0,1-6.29-3.09A15.22,15.22,0,0,1,5.11,23,15.08,15.08,0,0,1,5,17.93a.87.87,0,0,0-.11-.54,9.39,9.39,0,0,1-1-2.47C3.79,14.47,3.72,14,3.63,13.57ZM20.16,29.82h.62a10,10,0,0,0,4-.93,5.74,5.74,0,0,0,3.08-3.21,5.65,5.65,0,0,0,.29-2.58,4.36,4.36,0,0,0-1.42-2.91,7.59,7.59,0,0,0-3.14-1.64c-1.49-.42-3-.78-4.5-1.17a5.43,5.43,0,0,1-2.41-1.11,1.53,1.53,0,0,1-.18-2,2.86,2.86,0,0,1,1.87-1.09,11.65,11.65,0,0,1,2.13-.1A3,3,0,0,1,23,14.49c.28.42.52.86.82,1.27a2.28,2.28,0,0,0,.72.73,1.91,1.91,0,0,0,2.77-1.78,3.46,3.46,0,0,0-.75-2,6.73,6.73,0,0,0-4.13-2.39A12.6,12.6,0,0,0,19,10.18a9.45,9.45,0,0,0-4.34,1.2,4.56,4.56,0,0,0-2.28,3,7,7,0,0,0-.1,1.71,3.62,3.62,0,0,0,.71,2A5.75,5.75,0,0,0,15.33,20a24.78,24.78,0,0,0,4.85,1.43,9.57,9.57,0,0,1,2.64.89,2.12,2.12,0,0,1,.61,3.28,3.23,3.23,0,0,1-1.53,1,6.58,6.58,0,0,1-2.53.31A3.75,3.75,0,0,1,16,24.59a8.74,8.74,0,0,0-.86-1.52,1.83,1.83,0,0,0-2.17-.45,1.72,1.72,0,0,0-1.08,1.76,5.28,5.28,0,0,0,2,3.6,7.1,7.1,0,0,0,3.05,1.53A12.87,12.87,0,0,0,20.16,29.82Z"/></g></svg>