<svg id="Layer_1" data-name="Layer 1" xmlns="http://www.w3.org/2000/svg" viewBox="0 0 40 40"><defs><style>.cls-1{fill:none;stroke:#fff;stroke-miterlimit:10;stroke-width:0.1px;opacity:0.01;}.cls-2{fill:red;fill-rule:evenodd;}</style></defs><title>icon</title><rect class="cls-1" width="40" height="40"/><path class="cls-2" d="M5.39,29c.31-1,.6-1.93,1-2.88A.93.93,0,0,0,6,24.83c-6.81-5.28-6.22-14,1.21-18.38,6.29-3.71,15.06-2.2,19.26,3.3a11.47,11.47,0,0,1,1.81,3.53c.24.73.06.9-.69.89a12.59,12.59,0,0,0-9.66,3.74,9,9,0,0,0-2.56,8.87c.19.77,0,.91-.73.89a15.17,15.17,0,0,1-4-.6,1.71,1.71,0,0,0-1.43.16C8,27.89,6.79,28.5,5.6,29.14Zm16.13-17a1.92,1.92,0,0,0-3.83,0,1.92,1.92,0,1,0,3.83,0ZM12.08,12a1.91,1.91,0,1,0-3.81,0,1.89,1.89,0,0,0,1.9,1.88A1.86,1.86,0,0,0,12.08,12Z"/><path class="cls-2" d="M35.37,35.59c-1.1-.6-2-1-2.83-1.54a2.08,2.08,0,0,0-1.77-.22A12.6,12.6,0,0,1,19.83,32c-5.38-3.82-5.39-10.87,0-14.76a13.07,13.07,0,0,1,15.14.1c5.08,3.82,5.16,10.49.14,14.39a1.08,1.08,0,0,0-.45,1.48C34.9,33.88,35.07,34.62,35.37,35.59Zm-2.5-14.12A1.49,1.49,0,0,0,31.38,20a1.51,1.51,0,0,0-1.56,1.46A1.55,1.55,0,0,0,31.37,23,1.53,1.53,0,0,0,32.87,21.47ZM23.74,20a1.52,1.52,0,0,0-1.5,1.52A1.55,1.55,0,0,0,23.86,23a1.53,1.53,0,0,0,1.44-1.58A1.5,1.5,0,0,0,23.74,20Z"/></svg>