<svg id="Layer_1" data-name="Layer 1" xmlns="http://www.w3.org/2000/svg" viewBox="0 0 40 40"><defs><style>.cls-1{fill:none;stroke:#fff;stroke-miterlimit:10;stroke-width:0.1px;opacity:0.01;}.cls-2{fill:red;}</style></defs><title>icon</title><rect class="cls-1" width="40" height="40"/><path class="cls-2" d="M34.15,36.24H5.85A5.36,5.36,0,0,1,.5,30.88V9.12A5.36,5.36,0,0,1,5.85,3.76h28.3A5.36,5.36,0,0,1,39.5,9.12V30.88A5.36,5.36,0,0,1,34.15,36.24ZM5.85,5.76A3.36,3.36,0,0,0,2.5,9.12V30.88a3.36,3.36,0,0,0,3.35,3.36h28.3a3.36,3.36,0,0,0,3.35-3.36V9.12a3.36,3.36,0,0,0-3.35-3.36Z"/><path class="cls-2" d="M20,21a1.06,1.06,0,0,1-.51-.14L1,10A1,1,0,0,1,2,8.26L20,18.84,38,8.26A1,1,0,1,1,39,10L20.51,20.86A1.06,1.06,0,0,1,20,21Z"/></svg>